Patient4_TMGait_0pt3_03_right_10_GRF.mot
version=1
nRows=78
nColumns=19
inDegrees=no
endheader
time	F1x	F1y	F1z	M1x	M1y	M1z	F2x	F2y	F2z	M2x	M2y	M2z	EC1x	EC1y	EC1z	EC2x	EC2y	EC2z
18.95	-5.1041	785.0717	54.0557	-272.9126	-55.7442	817.5401	-0.83977	27.4378	-4.2416	8.5466	4.6989	26.4595	-0.0592	0.0182	-0.0073	-0.0462	0.0165	0.9585
18.9687	-5.7759	804.417	55.7112	-279.6665	-57.0698	834.5936	-1.2246	19.8576	-3.0144	6.2551	3.5212	19.1763	-0.0592	0.0182	-0.0073	-0.0462	0.0165	0.9585
18.9874	-6.3893	825.5132	57.5183	-286.9987	-58.46	852.9559	-1.2721	13.0608	-1.8786	4.1802	2.3388	12.6855	-0.0592	0.0182	-0.0073	-0.0462	0.0165	0.9585
19.0061	-6.7823	845.9667	59.3532	-294.0548	-59.7621	870.29	-1.1198	7.6405	-0.95345	2.5128	1.3171	7.544	-0.0592	0.0182	-0.0073	-0.0462	0.0165	0.9585
19.0249	-6.7768	862.9153	61.1117	-299.8205	-60.8378	883.7822	-0.88737	3.7351	-0.27593	1.3039	0.53171	3.8681	-0.0592	0.0182	-0.0073	-0.0462	0.0165	0.9585
19.0436	-6.2343	873.5176	62.6875	-303.2961	-61.5572	890.6544	-0.65124	1.2002	0.16853	0.51529	-0.0071413	1.4996	-0.0592	0.0182	-0.0073	-0.0462	0.0165	0.9585
19.0623	-5.0983	875.55	63.9469	-303.711	-61.7849	888.7685	-0.45236	-0.25006	0.42379	0.061529	-0.32918	0.15079	-0.0592	0.0182	-0.0073	-0.0462	0.0165	0.9585
19.081	-3.3812	867.9985	64.7222	-300.7342	-61.3684	877.2013	-0.3076	-0.95155	0.54503	-0.16144	-0.48521	-0.5072	-0.0592	0.0182	-0.0073	-0.0462	0.0165	0.9585
19.0997	-1.1449	851.3654	64.8621	-294.5765	-60.1825	856.5323	-0.22106	-1.2296	0.5849	-0.25722	-0.53013	-0.78559	-0.0592	0.0182	-0.0073	-0.0462	0.0165	0.9585
19.1184	1.5046	827.5682	64.2927	-285.9442	-58.1914	828.7307	-0.18472	-1.3674	0.58678	-0.31807	-0.51366	-0.95393	-0.0592	0.0182	-0.0073	-0.0462	0.0165	0.9585
19.1371	4.4424	799.5824	63.0626	-275.9042	-55.4832	796.7769	-0.18111	-1.5957	0.5792	-0.41958	-0.47537	-1.2352	-0.0592	0.0182	-0.0073	-0.0462	0.0165	0.9585
19.1559	7.5695	770.9525	61.3417	-265.7091	-52.2554	764.1579	-0.18439	-2.0891	0.58035	-0.62007	-0.44866	-1.8025	-0.0592	0.0182	-0.0073	-0.0462	0.0165	0.9585
19.1746	10.8166	745.1828	59.3798	-256.5874	-48.769	734.2818	-0.16106	-2.9577	0.60114	-0.95768	-0.46363	-2.7699	-0.0592	0.0182	-0.0073	-0.0462	0.0165	0.9585
19.1933	14.1426	725.1599	57.457	-249.5424	-45.3024	709.9215	-0.070994	-4.2302	0.64299	-1.4419	-0.5419	-4.1697	-0.0592	0.0182	-0.0073	-0.0462	0.0165	0.9585
19.212	17.536	712.7086	55.8334	-245.1991	-42.1062	692.8016	0.13222	-5.8213	0.69567	-2.0414	-0.69172	-5.915	-0.0592	0.0182	-0.0073	-0.0462	0.0165	0.9585
19.2307	20.9985	708.3204	54.7084	-243.7099	-39.3698	683.3711	0.49932	-7.4829	0.73744	-2.6665	-0.90305	-7.7421	-0.0592	0.0182	-0.0073	-0.0462	0.0165	0.9585
19.2494	24.5183	711.0704	54.2	-244.7238	-37.2131	680.7605	1.0754	-8.7475	0.73457	-3.1477	-1.1495	-9.1557	-0.0592	0.0182	-0.0073	-0.0462	0.0165	0.9585
19.2681	28.0391	718.8066	54.3363	-247.4534	-35.6885	682.9877	1.8868	-8.8681	0.63964	-3.2116	-1.3798	-9.3612	-0.0592	0.0182	-0.0073	-0.0462	0.0165	0.9585
19.2869	31.4251	728.5533	55.0589	-250.8197	-34.798	687.3563	2.9159	-6.778	0.39154	-2.4655	-1.5124	-7.2114	-0.0592	0.0182	-0.0073	-0.0462	0.0165	0.9585
19.3056	34.4726	737.0494	56.2393	-253.6498	-34.5042	690.9489	4.0701	-1.089	-0.081373	-0.39787	-1.4279	-1.2133	-0.0592	0.0182	-0.0073	-0.0462	0.0165	0.9585
19.3243	36.974	741.3351	57.6714	-254.8984	-34.7047	691.1382	5.1446	9.8268	-0.84818	3.5921	-0.96793	10.3906	-0.0592	0.0182	-0.0073	-0.0462	0.0165	0.9585
19.343	38.7744	739.1259	59.0652	-253.7884	-35.2011	685.9049	5.7783	27.6193	-1.9566	10.1131	0.059403	29.3925	-0.0592	0.0182	-0.0073	-0.0462	0.0165	0.9585
19.3617	39.8063	728.9283	60.0846	-249.8391	-35.7187	673.9209	5.414	53.5527	-3.4088	19.6349	1.8677	57.1819	-0.0592	0.0182	-0.0073	-0.0462	0.0165	0.9585
19.3804	40.0989	710	60.4315	-242.8352	-35.9781	654.4929	3.324	88.0149	-5.1656	32.3062	4.6806	94.2202	-0.0592	0.0182	-0.0073	-0.0462	0.0165	0.9585
19.3991	39.7354	682.2481	59.8974	-232.7844	-35.7582	627.491	-0.84162	130.2081	-7.1752	47.8334	8.5662	139.6898	-0.0592	0.0182	-0.0073	-0.0462	0.0165	0.9585
19.4179	38.8124	646.167	58.3755	-219.8951	-34.9252	593.3076	-6.6991	177.8308	-9.4643	65.3528	13.404	191.0951	-0.0592	0.0182	-0.0073	-0.0462	0.0165	0.9585
19.4366	37.4673	602.9317	55.8699	-204.612	-33.4289	552.9356	-13.4461	227.3572	-12.2037	83.536	19.0568	244.5413	-0.0592	0.0182	-0.0073	-0.0462	0.0165	0.9585
19.4553	35.8873	554.5043	52.5144	-187.6456	-31.3101	508.0656	-20.2009	276.1989	-15.3612	101.3995	25.1437	297.1073	-0.0592	0.0182	-0.0073	-0.0462	0.0165	0.9585
19.474	34.2236	503.1733	48.5416	-169.8104	-28.7064	460.7001	-26.1776	323.2692	-18.7552	118.5256	31.1708	347.4817	-0.0592	0.0182	-0.0073	-0.0462	0.0165	0.9585
19.4927	32.526	450.976	44.1615	-151.8231	-25.7694	412.6513	-30.7629	368.065	-22.1769	134.7254	36.6893	394.994	-0.0592	0.0182	-0.0073	-0.0462	0.0165	0.9585
19.5114	30.752	399.4813	39.5136	-134.2218	-22.6186	365.3317	-33.5998	410.2396	-25.4242	149.8798	41.3611	439.1948	-0.0592	0.0182	-0.0073	-0.0462	0.0165	0.9585
19.5301	28.8143	349.8148	34.7211	-117.3756	-19.3764	319.7646	-34.6238	449.5401	-28.3472	163.9126	45.0097	479.807	-0.0592	0.0182	-0.0073	-0.0462	0.0165	0.9585
19.5489	26.6255	302.7264	29.9209	-101.5122	-16.1794	276.6381	-34.0066	485.8559	-30.8937	176.8027	47.6435	516.7575	-0.0592	0.0182	-0.0073	-0.0462	0.0165	0.9585
19.5676	24.1341	258.6783	25.2607	-86.7532	-13.1686	236.3794	-32.0898	519.3238	-33.0939	188.6183	49.4175	550.2563	-0.0592	0.0182	-0.0073	-0.0462	0.0165	0.9585
19.5863	21.3456	217.9419	20.8791	-73.1524	-10.4666	199.2298	-29.302	550.3584	-35.0102	199.5264	50.5555	580.8122	-0.0592	0.0182	-0.0073	-0.0462	0.0165	0.9585
19.605	18.3381	180.6668	16.8895	-60.726	-8.1514	165.304	-26.0582	579.5543	-36.7029	209.752	51.2792	609.1246	-0.0592	0.0182	-0.0073	-0.0462	0.0165	0.9585
19.6237	15.2519	146.9329	13.3659	-49.4739	-6.2497	134.6396	-22.7098	607.4546	-38.2421	219.49	51.7907	635.8415	-0.0592	0.0182	-0.0073	-0.0462	0.0165	0.9585
19.6424	12.2649	116.7808	10.3445	-39.3935	-4.7395	107.2334	-19.5381	634.2926	-39.7227	228.8108	52.283	661.291	-0.0592	0.0182	-0.0073	-0.0462	0.0165	0.9585
19.6611	9.5491	90.21	7.8221	-30.4801	-3.5608	83.0513	-16.7617	659.8707	-41.2349	237.6201	52.9171	685.3579	-0.0592	0.0182	-0.0073	-0.0462	0.0165	0.9585
19.6799	7.206	67.1617	5.7608	-22.7209	-2.6422	62.0209	-14.5322	683.6202	-42.8259	245.6915	53.7889	707.5448	-0.0592	0.0182	-0.0073	-0.0462	0.0165	0.9585
19.6986	5.2351	47.5505	4.1014	-16.0994	-1.9285	44.0664	-12.9194	704.8033	-44.4766	252.7491	54.9024	727.1647	-0.0592	0.0182	-0.0073	-0.0462	0.0165	0.9585
19.7173	3.57	31.3264	2.7819	-10.6089	-1.3881	29.164	-11.8916	722.723	-46.1105	258.5514	56.166	743.5334	-0.0592	0.0182	-0.0073	-0.0462	0.0165	0.9585
19.736	2.156	18.4734	1.7537	-6.2514	-0.99888	17.3304	-11.3205	736.8689	-47.6173	262.9428	57.4223	756.1216	-0.0592	0.0182	-0.0073	-0.0462	0.0165	0.9585
19.7547	0.98035	8.9286	0.98478	-3.0104	-0.73965	8.5265	-11.031	747.0174	-48.8788	265.8845	58.4932	764.6724	-0.0592	0.0182	-0.0073	-0.0462	0.0165	0.9585
19.7734	0.065487	2.4434	0.4549	-0.80508	-0.58838	2.5292	-10.8581	753.3388	-49.8034	267.4819	59.227	769.3209	-0.0592	0.0182	-0.0073	-0.0462	0.0165	0.9585
19.7921	-0.58058	-1.484	0.13244	0.53249	-0.51818	-1.1241	-10.6799	756.4933	-50.352	268.008	59.5393	770.6923	-0.0592	0.0182	-0.0073	-0.0462	0.0165	0.9585
19.8109	-0.98945	-3.4789	-0.028646	1.2128	-0.50168	-3.0038	-10.435	757.6498	-50.5423	267.9023	59.4275	769.9372	-0.0592	0.0182	-0.0073	-0.0462	0.0165	0.9585
19.8296	-1.2124	-4.1485	-0.075588	1.4413	-0.5162	-3.6613	-10.128	758.4069	-50.4401	267.7395	58.9644	768.662	-0.0592	0.0182	-0.0073	-0.0462	0.0165	0.9585
19.8483	-1.3036	-4.0071	-0.051412	1.393	-0.54452	-3.5673	-9.8238	760.5305	-50.1361	268.1392	58.2696	768.6649	-0.0592	0.0182	-0.0073	-0.0462	0.0165	0.9585
19.867	-1.3121	-3.4461	0.0095943	1.2004	-0.57578	-3.081	-9.6108	765.5813	-49.7182	269.6417	57.4669	771.5447	-0.0592	0.0182	-0.0073	-0.0462	0.0165	0.9585
19.8857	-1.2762	-2.7332	0.083194	0.95458	-0.60208	-2.4483	-9.5372	774.5325	-49.2457	272.5802	56.6345	778.2917	-0.0592	0.0182	-0.0073	-0.0462	0.0165	0.9585
19.9044	-1.2197	-2.0313	0.15325	0.71099	-0.62102	-1.819	-9.5759	787.4929	-48.7321	276.9864	55.7763	788.9961	-0.0592	0.0182	-0.0073	-0.0462	0.0165	0.9585
19.9231	-1.1574	-1.4273	0.21086	0.49945	-0.63408	-1.2676	-9.6401	803.6638	-48.1478	282.5728	54.8308	802.8198	-0.0592	0.0182	-0.0073	-0.0462	0.0165	0.9585
19.9419	-1.0988	-0.9552	0.25222	0.33155	-0.64338	-0.82197	-9.6223	821.4812	-47.4468	288.7776	53.7081	818.1677	-0.0592	0.0182	-0.0073	-0.0462	0.0165	0.9585
19.9606	-1.0525	-0.61392	0.27917	0.20702	-0.65387	-0.48694	-9.4231	838.9025	-46.5954	294.8635	52.3274	832.9994	-0.0592	0.0182	-0.0073	-0.0462	0.0165	0.9585
19.9793	-1.0237	-0.39078	0.29538	0.12217	-0.66944	-0.25489	-8.9702	853.7497	-45.583	300.0381	50.6393	845.1818	-0.0592	0.0182	-0.0073	-0.0462	0.0165	0.9585
19.998	-1.0147	-0.27436	0.30458	0.0739	-0.69131	-0.11735	-8.2192	864.037	-44.4293	303.5728	48.6347	852.8048	-0.0592	0.0182	-0.0073	-0.0462	0.0165	0.9585
20.0167	-1.0262	-0.26261	0.30861	0.06376	-0.71904	-0.079755	-7.1543	868.2821	-43.1858	304.9177	46.3534	854.4715	-0.0592	0.0182	-0.0073	-0.0462	0.0165	0.9585
20.0354	-1.0584	-0.36238	0.30898	0.099527	-0.75164	-0.16091	-5.7839	865.7321	-41.9291	303.7866	43.8766	849.5023	-0.0592	0.0182	-0.0073	-0.0462	0.0165	0.9585
20.0541	-1.1135	-0.59456	0.30918	0.19168	-0.78876	-0.39443	-4.1353	856.4528	-40.7439	300.195	41.3085	838.0102	-0.0592	0.0182	-0.0073	-0.0462	0.0165	0.9585
20.0729	-1.191	-0.99139	0.31293	0.35216	-0.82977	-0.82619	-2.2411	841.2721	-39.7034	294.4403	38.7539	820.8291	-0.0592	0.0182	-0.0073	-0.0462	0.0165	0.9585
20.0916	-1.2791	-1.5867	0.31889	0.59197	-0.86745	-1.4974	-0.12516	821.6361	-38.8604	287.0501	36.3065	799.3623	-0.0592	0.0182	-0.0073	-0.0462	0.0165	0.9585
20.1103	-1.3531	-2.4016	0.32118	0.91595	-0.88786	-2.4307	2.1966	799.3707	-38.2485	278.6968	34.0422	775.3508	-0.0592	0.0182	-0.0073	-0.0462	0.0165	0.9585
20.129	-1.3726	-3.4207	0.30682	1.3152	-0.86426	-3.6118	4.7185	776.4311	-37.8711	270.1037	32.001	750.6339	-0.0592	0.0182	-0.0073	-0.0462	0.0165	0.9585
20.1477	-1.2779	-4.5606	0.25414	1.7557	-0.75382	-4.9505	7.4341	754.6593	-37.6997	261.9526	30.1855	726.926	-0.0592	0.0182	-0.0073	-0.0462	0.0165	0.9585
20.1664	-0.98842	-5.6276	0.13812	2.1622	-0.50163	-6.234	10.3352	735.5862	-37.6896	254.8108	28.5766	705.641	-0.0592	0.0182	-0.0073	-0.0462	0.0165	0.9585
20.1851	-0.41028	-6.2789	-0.066467	2.4028	-0.04381	-7.0859	13.4266	720.3128	-37.8014	249.088	27.1428	687.7839	-0.0592	0.0182	-0.0073	-0.0462	0.0165	0.9585
20.2039	0.55086	-5.9839	-0.38354	2.2737	0.68421	-6.9192	16.7177	709.448	-38.0091	245.0103	25.85	673.9041	-0.0592	0.0182	-0.0073	-0.0462	0.0165	0.9585
20.2226	1.97	-4.0026	-0.82838	1.4923	1.7303	-4.9029	20.2027	703.0869	-38.2978	242.6118	24.6694	664.0856	-0.0592	0.0182	-0.0073	-0.0462	0.0165	0.9585
20.2413	3.8677	0.59584	-1.3923	-0.29656	3.095	0.016163	23.8503	700.8259	-38.6638	241.7405	23.5845	657.9682	-0.0592	0.0182	-0.0073	-0.0462	0.0165	0.9585
20.26	6.1558	8.8569	-2.0298	-3.4876	4.6938	9.0358	27.5862	701.8043	-39.0996	242.0728	22.5899	654.7972	-0.0592	0.0182	-0.0073	-0.0462	0.0165	0.9585
20.2787	8.5656	21.7664	-2.6367	-8.4457	6.3033	23.3091	31.2745	704.7508	-39.5779	243.1324	21.688	653.4794	-0.0592	0.0182	-0.0073	-0.0462	0.0165	0.9585
20.2974	10.54	39.9543	-3.0302	-15.3977	7.4975	43.6233	34.7213	708.0179	-40.0471	244.3089	20.8835	652.6122	-0.0592	0.0182	-0.0073	-0.0462	0.0165	0.9585
20.3161	11.146	63.3872	-2.9501	-24.3096	7.6228	70.0551	37.6888	709.6879	-40.4423	244.9002	20.1883	650.5622	-0.0592	0.0182	-0.0073	-0.0462	0.0165	0.9585
20.3349	9.6063	91.3504	-2.0931	-34.8798	6.0399	101.9367	39.9249	707.7727	-40.6923	244.1876	19.6183	645.6248	-0.0592	0.0182	-0.0073	-0.0462	0.0165	0.9585
20.3536	5.9388	122.5709	-0.1998	-46.5904	2.4542	137.9126	41.2288	700.4469	-40.7204	241.5228	19.1668	636.2153	-0.0592	0.0182	-0.0073	-0.0462	0.0165	0.9585
20.3723	0.75192	154.706	2.791	-58.5382	-2.9791	175.3147	41.4985	686.2745	-40.449	236.4094	18.7958	621.0574	-0.0592	0.0182	-0.0073	-0.0462	0.0165	0.9585
20.391	-4.9251	184.3979	6.4394	-69.4809	-9.361	210.2757	40.7478	664.5393	-39.8167	228.6156	18.4497	599.4848	-0.0592	0.0182	-0.0073	-0.0462	0.0165	0.9585
